<?xml version="1.0" encoding="UTF-8"?>
<!DOCTYPE svg PUBLIC "-//W3C//DTD SVG 1.1//EN" "http://www.w3.org/Graphics/SVG/1.1/DTD/svg11.dtd">
<!-- Creator: CorelDRAW -->
<svg xmlns="http://www.w3.org/2000/svg" xml:space="preserve" width="1920px" height="1080px" version="1.1" style="shape-rendering:geometricPrecision; text-rendering:geometricPrecision; image-rendering:optimizeQuality; fill-rule:evenodd; clip-rule:evenodd"
viewBox="0 0 1920 1080"
 xmlns:xlink="http://www.w3.org/1999/xlink"
 xmlns:xodm="http://www.corel.com/coreldraw/odm/2003">
 <defs>
  <style type="text/css">
   <![CDATA[
    .fil0 {fill:#8925E5}
   ]]>
  </style>
 </defs>
 <g id="Layer_x0020_1">
  <metadata id="CorelCorpID_0Corel-Layer"/>
  <path class="fil0" d="M625.74 173.39l497.73 0c39.11,0 71.1,31.99 71.1,71.1l0 497.73c0,39.11 -31.99,71.1 -71.1,71.1l-497.73 0c-39.11,0 -71.1,-31.99 -71.1,-71.1l0 -497.73c0,-39.11 31.99,-71.1 71.1,-71.1zm457.15 221.84l-208.28 -118.28 -208.29 118.28 208.29 119 208.28 -119zm-208.28 237.25l-140.44 -80.24 -67.85 38.53 208.29 119 208.28 -119 -67.84 -38.53 -140.44 80.24zm0 -97.77l-140.44 -80.24 -67.85 38.53 208.29 119 208.28 -119 -67.84 -38.53 -140.44 80.24z"/>
 </g>
</svg>
