<svg height="366pt" viewBox="0 0 366.46802 366" width="366pt" xmlns="http://www.w3.org/2000/svg"><path d="m183.234375.234375c-100.90625 0-183.234375 82.09375-183.234375 183-.0195312 58.082031 27.527344 112.722656 74.234375 147.246094v-25.933594c0-58.789063 48.300781-106.3125 107.085937-106.3125h3.828126c58.785156 0 107.085937 47.523437 107.085937 106.3125v25.933594c46.707031-34.523438 74.253906-89.164063 74.234375-147.246094 0-100.90625-82.328125-183-183.234375-183zm0 170.289063c-31.589844 0-57.199219-25.609376-57.199219-57.199219 0-31.589844 25.609375-57.199219 57.199219-57.199219s57.199219 25.609375 57.199219 57.199219c0 31.589843-25.609375 57.199219-57.199219 57.199219zm0 0"/><path d="m185.148438 212.234375h-3.828126c-51.070312 0-93.085937 41.242187-93.085937 92.3125v35.328125c58.457031 35.144531 131.542969 35.144531 190 0v-35.328125c0-51.070313-42.015625-92.3125-93.085937-92.3125zm0 0"/><path d="m226.433594 113.328125c0 23.855469-19.34375 43.195313-43.199219 43.195313-23.859375 0-43.199219-19.339844-43.199219-43.195313 0-23.859375 19.339844-43.199219 43.199219-43.199219 23.855469 0 43.199219 19.339844 43.199219 43.199219zm0 0"/></svg>