<?xml version="1.0" encoding="iso-8859-1"?>
<!-- Generator: Adobe Illustrator 19.0.0, SVG Export Plug-In . SVG Version: 6.00 Build 0)  -->
<svg version="1.1" id="Capa_1" xmlns="http://www.w3.org/2000/svg" xmlns:xlink="http://www.w3.org/1999/xlink" x="0px" y="0px"
	 viewBox="0 0 490.667 490.667" style="enable-background:new 0 0 490.667 490.667;" xml:space="preserve">
<g>
	<g>
		<path d="M489.861,241.259c-0.533-1.323-1.323-2.496-2.325-3.477l-63.979-63.979c-4.16-4.16-10.923-4.16-15.083,0
			c-4.16,4.16-4.16,10.923,0,15.083l45.781,45.781H138.672c-5.888,0-10.667,4.779-10.667,10.667S132.784,256,138.672,256h315.584
			l-45.781,45.781c-4.16,4.16-4.16,10.923,0,15.083c2.069,2.091,4.8,3.136,7.531,3.136c2.731,0,5.461-1.045,7.552-3.115
			l63.979-63.979c0.981-0.981,1.771-2.176,2.325-3.477C490.928,246.805,490.928,243.861,489.861,241.259z"/>
	</g>
</g>
<g>
	<g>
		<path d="M138.672,213.333h202.667v-160C341.339,23.936,317.424,0,288.005,0H53.339C23.941,0,0.005,23.936,0.005,53.333v384
			c0,29.419,23.936,53.333,53.333,53.333h234.667c29.419,0,53.333-23.915,53.333-53.333v-160H138.672c-17.643,0-32-14.357-32-32
			C106.672,227.691,121.029,213.333,138.672,213.333z"/>
	</g>
</g>
<g>
</g>
<g>
</g>
<g>
</g>
<g>
</g>
<g>
</g>
<g>
</g>
<g>
</g>
<g>
</g>
<g>
</g>
<g>
</g>
<g>
</g>
<g>
</g>
<g>
</g>
<g>
</g>
<g>
</g>
</svg>
