<svg height="597.33331pt" viewBox="-18 -18 597.33331 597.33331" width="597.33331pt" xmlns="http://www.w3.org/2000/svg"><path d="m420 320h80v180h-80zm0 0"/><path d="m60 220h80v280h-80zm0 0"/><path d="m240 60h80v440h-80zm0 0"/><path d="m560 30c0-16.566406-13.433594-30-30-30h-500c-16.566406 0-30 13.433594-30 30v500c0 16.566406 13.433594 30 30 30h500c16.566406 0 30-13.433594 30-30zm-400 480c0 5.523438-4.476562 10-10 10h-100c-5.523438 0-10-4.476562-10-10v-300c0-5.523438 4.476562-10 10-10h100c5.523438 0 10 4.476562 10 10zm180 0c0 5.523438-4.476562 10-10 10h-100c-5.523438 0-10-4.476562-10-10v-460c0-5.523438 4.476562-10 10-10h100c5.523438 0 10 4.476562 10 10zm180 0c0 5.523438-4.476562 10-10 10h-100c-5.523438 0-10-4.476562-10-10v-200c0-5.523438 4.476562-10 10-10h100c5.523438 0 10 4.476562 10 10zm0 0"/></svg>