<?xml version="1.0"?>
<svg xmlns="http://www.w3.org/2000/svg" xmlns:xlink="http://www.w3.org/1999/xlink" version="1.1" id="Capa_1" x="0px" y="0px" width="512px" height="512px" viewBox="0 0 83.816 83.816" style="enable-background:new 0 0 83.816 83.816;" xml:space="preserve"><g><g>
	<g>
		<path d="M59.475,30.532c0-2.641-2.152-4.786-4.854-4.945c0.438,1.55,0.688,3.209,0.688,4.945c0,1.736-0.25,3.396-0.688,4.945    C57.322,35.318,59.475,33.172,59.475,30.532z" data-original="#000000" class="active-path" data-old_color="#000000" fill="#000000"/>
		<path d="M33.002,23.629c1.983-4.729,5.93-7.966,10.473-7.966c4.541,0,8.488,3.236,10.473,7.966    c0.111-0.044,0.232-0.073,0.361-0.073c0.05,0,0.098,0.006,0.146,0.007c-2.104-5.126-6.342-8.4-10.979-8.4    c-4.657,0-8.881,3.267-10.984,8.4c0.051-0.001,0.101-0.007,0.151-0.007C32.769,23.556,32.89,23.585,33.002,23.629z" data-original="#000000" class="active-path" data-old_color="#000000" fill="#000000"/>
		<path d="M43.475,50.775c-3.053,0-5.979-1.49-8.172-4.125c-2.461,2.225-8.854,7.353-15.932,7.808v9.407h19.46l1.812-6.277    c0.124-0.428,0.516-0.723,0.961-0.723h3.743c0.445,0,0.838,0.294,0.961,0.723l1.812,6.277h19.46v-9.407    c-7.071-0.456-13.469-5.584-15.933-7.808C49.453,49.284,46.528,50.775,43.475,50.775z M46.641,55.738c0,0.553-0.447,1-1,1H41.31    c-0.553,0-1-0.447-1-1v-3.375c0-0.551,0.447-1,1-1h4.331c0.553,0,1,0.449,1,1V55.738z" data-original="#000000" class="active-path" data-old_color="#000000" fill="#000000"/>
		<rect x="42.31" y="53.363" width="2.331" height="1.375" data-original="#000000" class="active-path" data-old_color="#000000" fill="#000000"/>
		<path d="M41.908,0C18.762,0,0,18.763,0,41.909c0,23.145,18.763,41.907,41.908,41.907c23.145,0,41.908-18.763,41.908-41.907    C83.816,18.763,65.053,0,41.908,0z M30.228,23.972c0.009-0.044,0.003-0.088,0.018-0.132c2.238-6.486,7.431-10.677,13.229-10.677    c5.709,0,10.871,4.101,13.149,10.448c0.041,0.114,0.052,0.229,0.05,0.344c2.791,0.954,4.801,3.538,4.801,6.577    c0,3.846-3.215,6.976-7.166,6.976c-0.127,0-0.248-0.029-0.36-0.073c-1.983,4.729-5.931,7.965-10.474,7.965    c-4.396,0-8.231-3.035-10.271-7.519c-0.092-0.156-0.171-0.306-0.232-0.441c-0.104,0.037-0.212,0.066-0.328,0.066    c-3.952,0-7.167-3.129-7.167-6.976C25.474,27.511,27.461,24.939,30.228,23.972z M69.578,64.863c0,0.553-0.447,1-1,1H47.367    c-0.445,0-0.837-0.293-0.961-0.723l-1.812-6.277h-2.239l-1.812,6.277c-0.124,0.428-0.516,0.723-0.961,0.723H18.37    c-0.553,0-1-0.447-1-1V53.488c0-0.551,0.447-1,1-1c7.907,0,15.514-7.217,16.354-8.039c0.209-0.205,0.501-0.31,0.791-0.281    c0.292,0.027,0.558,0.181,0.727,0.421c1.868,2.66,4.504,4.187,7.23,4.187c2.729,0,5.365-1.525,7.232-4.187    c0.169-0.24,0.436-0.394,0.727-0.421c0.289-0.028,0.582,0.076,0.791,0.279c0.842,0.824,8.455,8.041,16.354,8.041    c0.554,0,1,0.449,1,1L69.578,64.863L69.578,64.863z" data-original="#000000" class="active-path" data-old_color="#000000" fill="#000000"/>
		<path d="M32.328,35.477c-0.438-1.55-0.688-3.209-0.688-4.945c0-1.736,0.25-3.396,0.688-4.945    c-2.701,0.159-4.854,2.305-4.854,4.945C27.474,33.172,29.627,35.318,32.328,35.477z" data-original="#000000" class="active-path" data-old_color="#000000" fill="#000000"/>
		<path d="M43.475,17.663c-5.422,0-9.833,5.773-9.833,12.869c0,2.329,0.482,4.509,1.313,6.396c0.426,0.684,1.516,1.733,4.194,1.996    c0.471-0.544,1.299-0.893,2.288-0.893c1.542,0,2.705,0.842,2.705,1.959c0,1.117-1.163,1.959-2.705,1.959    c-1.065,0-1.939-0.407-2.384-1.024c-0.595-0.054-1.128-0.144-1.617-0.258c1.669,1.707,3.762,2.733,6.04,2.733    c5.422,0,9.834-5.772,9.834-12.869C53.309,23.436,48.896,17.663,43.475,17.663z" data-original="#000000" class="active-path" data-old_color="#000000" fill="#000000"/>
	</g>
</g></g> </svg>
