<?xml version="1.0"?>
<svg xmlns="http://www.w3.org/2000/svg" xmlns:xlink="http://www.w3.org/1999/xlink" version="1.1" id="Capa_1" x="0px" y="0px" viewBox="0 0 512 512" style="enable-background:new 0 0 512 512;" xml:space="preserve" width="512px" height="512px"><g><g>
	<g>
		<path d="M496.998,444.392H15.002C6.717,444.392,0,451.109,0,459.394c0,8.285,6.717,15.002,15.002,15.002h481.997    c8.285,0,15.002-6.717,15.002-15.002C512,451.109,505.283,444.392,496.998,444.392z" data-original="#000000" class="active-path" data-old_color="#000000" fill="#9E0CCD"/>
	</g>
</g><g>
	<g>
		<path d="M131.376,200.537h-58.26c-19.212,0-34.842,15.63-34.842,34.842v177.698h127.944V235.379    C166.218,216.167,150.588,200.537,131.376,200.537z M116.169,266.093c-0.05,0.48-0.12,0.97-0.22,1.45    c-0.09,0.48-0.21,0.96-0.36,1.43c-0.14,0.46-0.31,0.93-0.49,1.38c-0.19,0.45-0.4,0.89-0.63,1.32c-0.23,0.44-0.48,0.86-0.75,1.27    c-0.27,0.4-0.57,0.8-0.88,1.18c-0.31,0.38-0.64,0.75-0.99,1.1c-0.34,0.34-0.71,0.68-1.09,0.99c-0.38,0.31-0.78,0.6-1.19,0.87    c-0.4,0.27-0.83,0.53-1.26,0.76c-0.43,0.22-0.87,0.44-1.32,0.62c-0.46,0.19-0.92,0.36-1.39,0.5c-0.46,0.14-0.94,0.26-1.42,0.36    c-0.48,0.09-0.97,0.17-1.46,0.22s-0.98,0.07-1.47,0.07s-0.99-0.02-1.48-0.07c-0.48-0.05-0.97-0.13-1.45-0.22    c-0.48-0.1-0.96-0.22-1.43-0.36c-0.46-0.14-0.93-0.31-1.38-0.5c-0.45-0.18-0.9-0.4-1.33-0.62c-0.43-0.23-0.85-0.49-1.26-0.76    c-0.41-0.27-0.8-0.56-1.18-0.87c-0.38-0.31-0.75-0.65-1.1-0.99c-0.34-0.35-0.68-0.72-0.99-1.1c-0.31-0.38-0.6-0.78-0.87-1.18    c-0.27-0.41-0.53-0.83-0.76-1.27c-0.22-0.43-0.44-0.87-0.62-1.32c-0.19-0.45-0.36-0.92-0.5-1.38c-0.14-0.47-0.26-0.95-0.36-1.43    c-0.09-0.48-0.17-0.97-0.22-1.45c-0.05-0.49-0.07-0.99-0.07-1.48c0-0.49,0.02-0.99,0.07-1.48c0.05-0.48,0.13-0.97,0.22-1.45    c0.1-0.48,0.22-0.96,0.36-1.43c0.14-0.46,0.31-0.93,0.5-1.38c0.18-0.45,0.4-0.89,0.62-1.32c0.23-0.44,0.49-0.86,0.76-1.27    c0.27-0.4,0.56-0.8,0.87-1.18c0.31-0.38,0.65-0.75,0.99-1.1c0.35-0.34,0.72-0.68,1.1-0.99c0.38-0.31,0.77-0.6,1.18-0.87    c0.41-0.27,0.83-0.52,1.26-0.75c0.43-0.23,0.88-0.44,1.33-0.63c0.45-0.19,0.92-0.35,1.38-0.5c0.47-0.14,0.95-0.26,1.43-0.36    c0.48-0.09,0.97-0.17,1.45-0.21c0.98-0.1,1.97-0.1,2.95,0c0.49,0.04,0.98,0.12,1.46,0.21c0.48,0.1,0.96,0.22,1.42,0.36    c0.47,0.15,0.93,0.31,1.39,0.5c0.45,0.19,0.89,0.4,1.32,0.63s0.86,0.48,1.26,0.75c0.41,0.27,0.81,0.56,1.19,0.87    c0.38,0.31,0.75,0.65,1.09,0.99c0.35,0.35,0.68,0.72,0.99,1.1s0.61,0.78,0.88,1.18c0.27,0.41,0.52,0.83,0.75,1.27    c0.23,0.43,0.44,0.87,0.63,1.32c0.18,0.45,0.35,0.92,0.49,1.38c0.15,0.47,0.27,0.95,0.36,1.43c0.1,0.48,0.17,0.97,0.22,1.45    c0.05,0.49,0.08,0.99,0.08,1.48C116.249,265.102,116.219,265.602,116.169,266.093z" data-original="#000000" class="active-path" data-old_color="#000000" fill="#9E0CCD"/>
	</g>
</g><g>
	<g>
		<path d="M319.972,72.446c0-19.212-15.63-34.842-34.842-34.842h-58.26c-19.212,0-34.842,15.63-34.842,34.842v340.63h127.944V72.446    H319.972z M271.186,105.075c-0.04,0.48-0.12,0.97-0.22,1.45c-0.09,0.48-0.21,0.96-0.36,1.43c-0.14,0.46-0.3,0.93-0.49,1.38    c-0.189,0.45-0.399,0.89-0.63,1.32c-0.229,0.44-0.479,0.86-0.75,1.27c-0.27,0.4-0.569,0.8-0.88,1.18    c-0.31,0.38-0.64,0.75-0.99,1.1c-0.34,0.34-0.71,0.68-1.09,0.99c-0.38,0.31-0.78,0.6-1.189,0.87c-0.4,0.27-0.83,0.53-1.261,0.75    c-0.43,0.23-0.88,0.44-1.33,0.63c-0.449,0.19-0.909,0.36-1.38,0.5c-0.46,0.14-0.939,0.26-1.42,0.36    c-0.479,0.09-0.97,0.17-1.46,0.22s-0.98,0.07-1.47,0.07s-0.99-0.02-1.48-0.07c-0.48-0.05-0.97-0.13-1.45-0.22    c-0.48-0.1-0.96-0.22-1.43-0.36c-0.46-0.14-0.93-0.31-1.38-0.5c-0.45-0.19-0.9-0.4-1.33-0.63c-0.43-0.22-0.85-0.48-1.26-0.75    s-0.81-0.56-1.18-0.87c-0.38-0.31-0.75-0.65-1.1-0.99c-0.35-0.35-0.68-0.72-0.99-1.1c-0.31-0.38-0.6-0.78-0.87-1.18    c-0.27-0.41-0.53-0.83-0.76-1.27c-0.23-0.43-0.44-0.87-0.62-1.32c-0.19-0.45-0.36-0.92-0.5-1.38c-0.14-0.47-0.26-0.95-0.36-1.43    c-0.1-0.48-0.17-0.97-0.22-1.45c-0.05-0.49-0.07-0.99-0.07-1.48s0.02-0.98,0.07-1.47s0.12-0.98,0.22-1.46s0.22-0.96,0.36-1.42    c0.14-0.47,0.31-0.94,0.5-1.39c0.18-0.45,0.39-0.89,0.62-1.32c0.23-0.43,0.49-0.86,0.76-1.27c0.27-0.4,0.56-0.8,0.87-1.18    c0.31-0.38,0.64-0.75,0.99-1.1c0.35-0.34,0.72-0.68,1.1-0.99c0.37-0.31,0.77-0.6,1.18-0.87c0.41-0.27,0.83-0.52,1.26-0.75    c0.43-0.23,0.88-0.44,1.33-0.63c0.45-0.19,0.92-0.35,1.38-0.5c0.47-0.14,0.95-0.26,1.43-0.36c0.48-0.09,0.97-0.17,1.45-0.22    c0.98-0.09,1.97-0.09,2.95,0c0.49,0.05,0.98,0.13,1.46,0.22c0.48,0.1,0.96,0.22,1.42,0.36c0.471,0.15,0.931,0.31,1.38,0.5    c0.45,0.19,0.9,0.4,1.33,0.63c0.431,0.23,0.86,0.48,1.261,0.75c0.409,0.27,0.81,0.56,1.189,0.87c0.379,0.31,0.75,0.65,1.09,0.99    c0.351,0.35,0.681,0.72,0.99,1.1c0.311,0.38,0.61,0.78,0.88,1.18c0.271,0.41,0.521,0.84,0.75,1.27c0.23,0.43,0.44,0.87,0.63,1.32    c0.19,0.45,0.351,0.92,0.49,1.39c0.15,0.46,0.271,0.94,0.36,1.42c0.1,0.48,0.18,0.97,0.22,1.46c0.05,0.49,0.08,0.98,0.08,1.47    C271.266,104.084,271.236,104.584,271.186,105.075z" data-original="#000000" class="active-path" data-old_color="#000000" fill="#9E0CCD"/>
	</g>
</g><g>
	<g>
		<path d="M439.284,120.268h-58.259c-19.212,0-34.842,15.63-34.842,34.842v257.967h127.943V155.11    C474.126,135.898,458.496,120.268,439.284,120.268z M425.203,189.084c-0.05,0.48-0.12,0.97-0.22,1.45    c-0.09,0.48-0.21,0.96-0.36,1.43c-0.14,0.46-0.3,0.93-0.49,1.38c-0.189,0.45-0.399,0.89-0.63,1.32    c-0.229,0.44-0.479,0.86-0.75,1.27c-0.27,0.4-0.569,0.8-0.87,1.18c-0.319,0.38-0.649,0.75-1,1.1c-0.34,0.34-0.71,0.68-1.09,0.99    c-0.38,0.31-0.78,0.6-1.189,0.87c-0.4,0.27-0.83,0.53-1.261,0.76c-0.43,0.22-0.88,0.44-1.33,0.62c-0.449,0.19-0.909,0.36-1.38,0.5    c-0.46,0.14-0.939,0.26-1.42,0.36c-0.479,0.1-0.97,0.17-1.46,0.22c-0.49,0.05-0.979,0.07-1.47,0.07c-0.491,0-0.99-0.02-1.48-0.07    c-0.479-0.05-0.97-0.12-1.449-0.22c-0.48-0.1-0.96-0.22-1.431-0.36c-0.46-0.14-0.93-0.31-1.38-0.5c-0.45-0.18-0.899-0.4-1.33-0.62    c-0.43-0.23-0.85-0.49-1.26-0.76c-0.41-0.27-0.81-0.56-1.18-0.87c-0.38-0.31-0.75-0.65-1.101-0.99c-0.34-0.35-0.68-0.72-0.989-1.1    c-0.311-0.38-0.601-0.78-0.87-1.18c-0.271-0.41-0.53-0.83-0.761-1.27c-0.22-0.43-0.439-0.87-0.619-1.32    c-0.19-0.45-0.36-0.92-0.5-1.38c-0.141-0.47-0.261-0.95-0.36-1.43c-0.09-0.48-0.17-0.97-0.22-1.45    c-0.051-0.49-0.07-0.99-0.07-1.48s0.02-0.99,0.07-1.48c0.05-0.48,0.13-0.97,0.22-1.45c0.1-0.48,0.22-0.96,0.36-1.42    c0.14-0.47,0.31-0.94,0.5-1.39c0.18-0.45,0.399-0.89,0.619-1.32c0.23-0.44,0.49-0.86,0.761-1.27c0.27-0.4,0.56-0.8,0.87-1.18    c0.31-0.38,0.649-0.75,0.989-1.1c0.351-0.34,0.721-0.68,1.101-0.99c0.37-0.31,0.77-0.6,1.18-0.87c0.41-0.27,0.83-0.52,1.26-0.75    c0.431-0.23,0.88-0.44,1.33-0.63c0.45-0.19,0.92-0.35,1.38-0.5c0.471-0.14,0.95-0.26,1.431-0.36c0.479-0.09,0.97-0.17,1.449-0.22    c0.98-0.09,1.971-0.09,2.95,0c0.49,0.05,0.98,0.13,1.46,0.22c0.48,0.1,0.96,0.22,1.42,0.36c0.471,0.15,0.931,0.31,1.38,0.5    c0.45,0.19,0.9,0.4,1.33,0.63c0.431,0.23,0.86,0.48,1.261,0.75c0.409,0.27,0.81,0.56,1.189,0.87c0.379,0.31,0.75,0.65,1.09,0.99    c0.351,0.35,0.681,0.72,1,1.1c0.301,0.38,0.601,0.78,0.87,1.18c0.271,0.41,0.521,0.83,0.75,1.27c0.23,0.43,0.44,0.87,0.63,1.32    c0.19,0.45,0.351,0.92,0.49,1.39c0.15,0.46,0.271,0.94,0.36,1.42c0.1,0.48,0.17,0.97,0.22,1.45c0.05,0.49,0.08,0.99,0.08,1.48    C425.283,188.093,425.253,188.593,425.203,189.084z" data-original="#000000" class="active-path" data-old_color="#000000" fill="#9E0CCD"/>
	</g>
</g></g> </svg>
