<?xml version="1.0"?>
<svg xmlns="http://www.w3.org/2000/svg" id="Layer_3" enable-background="new 0 0 64 64" height="512px" viewBox="0 0 64 64" width="512px" class=""><g><path d="m61.646 3.232-.879-.879c-.86-.86-2.05-1.353-3.267-1.353s-2.407.493-3.268 1.354l-.646.646h-7.687c-2.137 0-4.146.832-5.656 2.343l-6.708 6.708c-2.925 2.925-4.535 6.812-4.535 10.949 0 .404.243.77.617.924.124.052.254.076.383.076.26 0 .516-.102.707-.293l14.414-14.414c.187-.187.444-.293.707-.293h1.758l-9.293 9.293-17 17-15 15c-.093.093-.16.201-.209.315l-.003-.001-.007.016c0 .001-.001.002-.001.003l-2.992 6.981c-.161.375-.077.812.212 1.101l.293.292-2.293 2.293 1.414 1.414 2.293-2.293.293.293c.191.191.447.293.707.293.133 0 .267-.026.394-.081l6.981-2.992c.001 0 .002-.001.003-.001l.016-.007-.001-.003c.114-.049.222-.116.315-.209l15-15 17-17 15.938-15.939c.861-.861 1.354-2.051 1.354-3.268s-.493-2.407-1.354-3.268zm-7.939 9.061c-.187-.188-.441-.293-.707-.293h-5.586l4.586-4.586 4.586 4.586-1.586 1.586zm-.121 2.707-5.586 5.586-4.586-4.586 2-2h7.172zm-7.758-8c-.801 0-1.555.312-2.121.879l-12.442 12.442c.517-2.581 1.781-4.953 3.685-6.856l6.708-6.708c1.132-1.133 2.639-1.757 4.241-1.757h5.687l-2 2zm-17.828 33.586-1.586-1.586 15.586-15.586 1.586 1.586zm-3-3-1.586-1.586 15.586-15.586 1.586 1.586zm-18.771 21.228-1.043-1.043 2.152-5.02 3.912 3.912zm6.771-3.228-4.586-4.586 13.586-13.586 4.586 4.586zm32-32-4.586-4.586 1.586-1.586 4.586 4.586zm15.232-15.232-2.232 2.232-4.586-4.586 2.232-2.232c.977-.975 2.73-.975 3.707 0l.879.879c.488.488.768 1.163.768 1.853s-.28 1.365-.768 1.854z" data-original="#000000" class="active-path" data-old_color="#000000" fill="#FFFFFF"/></g> </svg>
