<?xml version="1.0" encoding="UTF-8"?>
<!DOCTYPE svg PUBLIC "-//W3C//DTD SVG 1.1//EN" "http://www.w3.org/Graphics/SVG/1.1/DTD/svg11.dtd">
<!-- Creator: CorelDRAW -->
<svg xmlns="http://www.w3.org/2000/svg" xml:space="preserve" width="1920px" height="1080px" version="1.1" style="shape-rendering:geometricPrecision; text-rendering:geometricPrecision; image-rendering:optimizeQuality; fill-rule:evenodd; clip-rule:evenodd"
viewBox="0 0 1920 1080"
 xmlns:xlink="http://www.w3.org/1999/xlink"
 xmlns:xodm="http://www.corel.com/coreldraw/odm/2003">
 <defs>
  <style type="text/css">
   <![CDATA[
    .fil0 {fill:#666666}
   ]]>
  </style>
 </defs>
 <g id="Layer_x0020_1">
  <metadata id="CorelCorpID_0Corel-Layer"/>
  <path class="fil0" d="M521.22 164.75l178.61 0c35.08,0 63.74,28.66 63.74,63.74l0 128.76c0,35.09 -28.66,63.74 -63.74,63.74l-178.61 0c-35.09,0 -63.74,-28.65 -63.74,-63.74l0 -128.76c0,-35.08 28.65,-63.74 63.74,-63.74zm374.73 578.37l168.88 0c37.75,0 68.61,-30.86 68.61,-68.61l0 -122.32c0,-37.74 -30.86,-68.6 -68.61,-68.6l-168.88 0c-37.75,0 -68.61,30.86 -68.61,68.6l0 122.32c0,37.75 30.86,68.61 68.61,68.61zm-369.87 0l168.89 0c37.74,0 68.6,-30.86 68.6,-68.61l0 -122.32c0,-37.74 -30.86,-68.6 -68.6,-68.6l-168.89 0c-37.74,0 -68.6,30.86 -68.6,68.6l0 122.32c0,37.75 30.86,68.61 68.6,68.61zm365.01 -578.37l178.6 0c35.09,0 63.75,28.66 63.75,63.74l0 128.76c0,35.09 -28.66,63.74 -63.75,63.74l-178.6 0c-35.09,0 -63.75,-28.65 -63.75,-63.74l0 -128.76c0,-35.08 28.66,-63.74 63.75,-63.74z"/>
 </g>
</svg>
