<?xml version="1.0" encoding="UTF-8"?>
<!DOCTYPE svg PUBLIC "-//W3C//DTD SVG 1.1//EN" "http://www.w3.org/Graphics/SVG/1.1/DTD/svg11.dtd">
<!-- Creator: CorelDRAW -->
<svg xmlns="http://www.w3.org/2000/svg" xml:space="preserve" width="1920px" height="1080px" version="1.1" style="shape-rendering:geometricPrecision; text-rendering:geometricPrecision; image-rendering:optimizeQuality; fill-rule:evenodd; clip-rule:evenodd"
viewBox="0 0 1920 1080"
 xmlns:xlink="http://www.w3.org/1999/xlink"
 xmlns:xodm="http://www.corel.com/coreldraw/odm/2003">
 <defs>
  <style type="text/css">
   <![CDATA[
    .fil0 {fill:#4D4D4D}
   ]]>
  </style>
 </defs>
 <g id="Layer_x0020_1">
  <metadata id="CorelCorpID_0Corel-Layer"/>
  <path class="fil0" d="M1208.65 271.16l-489.71 0c-32.23,0 -58.6,26.37 -58.6,58.6l0 486.05c0,32.23 26.37,58.6 58.6,58.6l489.71 0c32.23,0 58.6,-26.37 58.6,-58.6l0 -486.05c0,-32.23 -26.37,-58.6 -58.6,-58.6zm-244.86 127.54c46.97,0 85.05,38.08 85.05,85.05 0,46.97 -38.08,85.05 -85.05,85.05 -46.96,0 -85.04,-38.08 -85.04,-85.05 0,-46.97 38.08,-85.05 85.04,-85.05zm-93.39 348.17l186.79 0c30.21,0 54.94,-24.72 54.94,-54.94l0 -28.5c0,-45.89 -37.55,-83.43 -83.44,-83.43l-129.79 0c-45.89,0 -83.44,37.54 -83.44,83.43l0 28.5c0,30.22 24.73,54.94 54.94,54.94z"/>
 </g>
</svg>
