<?xml version="1.0" encoding="UTF-8"?>
<!DOCTYPE svg PUBLIC "-//W3C//DTD SVG 1.1//EN" "http://www.w3.org/Graphics/SVG/1.1/DTD/svg11.dtd">
<!-- Creator: CorelDRAW -->
<svg xmlns="http://www.w3.org/2000/svg" xml:space="preserve" width="1920px" height="1080px" version="1.1" style="shape-rendering:geometricPrecision; text-rendering:geometricPrecision; image-rendering:optimizeQuality; fill-rule:evenodd; clip-rule:evenodd"
viewBox="0 0 1920 1080"
 xmlns:xlink="http://www.w3.org/1999/xlink"
 xmlns:xodm="http://www.corel.com/coreldraw/odm/2003">
 <defs>
  <style type="text/css">
   <![CDATA[
    .fil0 {fill:#4D4D4D}
   ]]>
  </style>
 </defs>
 <g id="Layer_x0020_1">
  <metadata id="CorelCorpID_0Corel-Layer"/>
  <path class="fil0" d="M1163.78 319.74l-509.86 0c-33.56,0 -61.02,27.46 -61.02,61.02l0 506.05c0,33.55 27.46,61.01 61.02,61.01l509.86 0c33.55,0 61.01,-27.46 61.01,-61.01l0 -506.05c0,-33.56 -27.46,-61.02 -61.01,-61.02zm-214.98 274.07c-4.3,-4.33 -9.07,-8.16 -14.2,-11.43 -13.62,-8.72 -29.46,-13.35 -45.64,-13.35 -22.44,-0.04 -43.98,8.88 -59.82,24.78l-76.88 76.93c-15.82,15.85 -24.7,37.32 -24.72,59.72 -0.03,46.73 37.82,84.63 84.55,84.66 22.42,0.08 43.94,-8.8 59.77,-24.66l63.46 -63.45c1.15,-1.15 1.8,-2.71 1.79,-4.33 -0.02,-3.34 -2.75,-6.03 -6.08,-6.01l-2.42 0c-13.25,0.05 -26.4,-2.5 -38.68,-7.49 -2.26,-0.94 -4.86,-0.41 -6.58,1.32l-45.63 45.69c-14.17,14.17 -37.14,14.17 -51.31,0 -14.17,-14.16 -14.17,-37.13 0,-51.3l77.17 -77.12c14.16,-14.14 37.1,-14.14 51.25,0 9.54,8.98 24.43,8.98 33.97,0 4.1,-4.11 6.59,-9.56 7.01,-15.35 0.44,-6.92 -2.11,-13.7 -7.01,-18.61zm116.58 -116.58c-33.05,-33.05 -86.62,-33.05 -119.66,0l-63.4 63.33c-1.74,1.75 -2.25,4.39 -1.27,6.65 0.96,2.28 3.21,3.74 5.68,3.69l2.23 0c13.25,-0.03 26.37,2.54 38.62,7.55 2.27,0.93 4.87,0.41 6.59,-1.32l45.51 -45.46c14.17,-14.16 37.14,-14.16 51.31,0 14.17,14.17 14.17,37.15 0,51.31l-56.69 56.63 -0.48 0.54 -19.83 19.71c-14.15,14.14 -37.09,14.14 -51.24,0 -9.55,-8.98 -24.43,-8.98 -33.97,0 -4.13,4.13 -6.62,9.63 -7.01,15.47 -0.44,6.92 2.11,13.7 7.01,18.61 6.99,7.03 15.18,12.76 24.17,16.92 1.27,0.61 2.54,1.09 3.81,1.64 1.27,0.54 2.6,0.97 3.87,1.45 1.27,0.48 2.6,0.9 3.86,1.26l3.58 0.97c2.41,0.6 4.83,1.09 7.3,1.51 2.99,0.44 5.99,0.73 9.01,0.85l4.23 0 0.36 0 3.63 -0.42c1.33,-0.06 2.72,-0.36 4.29,-0.36l2.06 0 4.16 -0.61 1.94 -0.36 3.5 -0.73 0.67 0c14.84,-3.73 28.4,-11.41 39.22,-22.24l76.94 -76.93c33.04,-33.04 33.04,-86.62 0,-119.66z"/>
 </g>
</svg>
