<?xml version="1.0" encoding="UTF-8"?>
<!DOCTYPE svg PUBLIC "-//W3C//DTD SVG 1.1//EN" "http://www.w3.org/Graphics/SVG/1.1/DTD/svg11.dtd">
<!-- Creator: CorelDRAW -->
<svg xmlns="http://www.w3.org/2000/svg" xml:space="preserve" width="1920px" height="1080px" version="1.1" style="shape-rendering:geometricPrecision; text-rendering:geometricPrecision; image-rendering:optimizeQuality; fill-rule:evenodd; clip-rule:evenodd"
viewBox="0 0 1920 1080"
 xmlns:xlink="http://www.w3.org/1999/xlink"
 xmlns:xodm="http://www.corel.com/coreldraw/odm/2003">
 <defs>
  <style type="text/css">
   <![CDATA[
    .fil0 {fill:black;fill-rule:nonzero}
   ]]>
  </style>
 </defs>
 <g id="Layer_x0020_1">
  <metadata id="CorelCorpID_0Corel-Layer"/>
  <g id="_105553557075712">
   <g>
    <g>
     <path class="fil0" d="M651.05 557.21l62.24 -62.22c12.53,-12.59 12.53,-33.06 -0.08,-45.73 -6.11,-6.06 -14.2,-9.4 -22.81,-9.4 -8.61,0 -16.7,3.34 -22.81,9.45l-117.2 117.18c-3.04,2.97 -5.46,6.54 -7.27,10.88 -1.57,3.92 -2.37,8.02 -2.37,12.15 0,4.16 0.8,8.25 2.47,12.34 1.67,4.08 4.09,7.67 7.01,10.47l117.36 117.38c6.08,6.11 14.2,9.46 22.81,9.46 8.61,0 16.74,-3.35 22.89,-9.48 12.51,-12.58 12.51,-33.03 -0.02,-45.67l-62.22 -62.22 108.34 0 0 -64.6 -108.34 0 0 0.01z"/>
     <path class="fil0" d="M1230.09 300.39l-363.08 0c-59.37,0 -107.62,48.3 -107.62,107.65l0 5.32 0 143.85 318.51 0c17.81,0 32.33,14.49 32.33,32.32 0,17.79 -14.5,32.29 -32.33,32.29l-318.51 0 0 54.41 0 47.78 0 47.13c0,59.34 48.25,107.63 107.62,107.63l363.08 0c59.37,0 107.63,-48.29 107.63,-107.63l0 -363.1c0,-59.35 -48.26,-107.65 -107.63,-107.65z"/>
    </g>
   </g>
   <g>
   </g>
   <g>
   </g>
   <g>
   </g>
   <g>
   </g>
   <g>
   </g>
   <g>
   </g>
   <g>
   </g>
   <g>
   </g>
   <g>
   </g>
   <g>
   </g>
   <g>
   </g>
   <g>
   </g>
   <g>
   </g>
   <g>
   </g>
   <g>
   </g>
  </g>
 </g>
</svg>
