<svg id="bold" enable-background="new 0 0 24 24" height="512" viewBox="0 0 24 24" width="512" xmlns="http://www.w3.org/2000/svg"><path d="m19.844 5.463c-1.78-2.795-4.711-4.463-7.844-4.463s-6.064 1.668-7.844 4.463c-.208.328-.208.746 0 1.074 1.78 2.795 4.711 4.463 7.844 4.463s6.064-1.668 7.844-4.463c.208-.328.208-.746 0-1.074zm-7.844 2.537c-1.105 0-2-.895-2-2s.895-2 2-2 2 .895 2 2-.895 2-2 2z"/><path d="m23 4c-.553 0-1 .447-1 1v11h-20v-11c0-.553-.447-1-1-1s-1 .447-1 1v14c0 1.103.897 2 2 2h7.261c-.183.518-.5 1.179-1.041 1.72-.215.215-.278.537-.163.817.116.28.389.463.693.463h6.5c.414 0 .75-.336.75-.75 0-.255-.127-.48-.322-.616-.485-.519-.78-1.141-.955-1.634h7.277c1.103 0 2-.897 2-2v-14c0-.553-.447-1-1-1z"/></svg>