<?xml version="1.0" encoding="UTF-8"?>
<!DOCTYPE svg PUBLIC "-//W3C//DTD SVG 1.1//EN" "http://www.w3.org/Graphics/SVG/1.1/DTD/svg11.dtd">
<!-- Creator: CorelDRAW -->
<svg xmlns="http://www.w3.org/2000/svg" xml:space="preserve" width="1920px" height="1080px" version="1.1" style="shape-rendering:geometricPrecision; text-rendering:geometricPrecision; image-rendering:optimizeQuality; fill-rule:evenodd; clip-rule:evenodd"
viewBox="0 0 1920 1080"
 xmlns:xlink="http://www.w3.org/1999/xlink"
 xmlns:xodm="http://www.corel.com/coreldraw/odm/2003">
 <defs>
  <style type="text/css">
   <![CDATA[
    .fil0 {fill:#4D4D4D}
   ]]>
  </style>
 </defs>
 <g id="Layer_x0020_1">
  <metadata id="CorelCorpID_0Corel-Layer"/>
  <path class="fil0" d="M1250.29 126.62l-525 0c-34.55,0 -62.83,28.27 -62.83,62.83l0 521.08c0,34.55 28.28,62.82 62.83,62.82l525 0c34.56,0 62.83,-28.27 62.83,-62.82l0 -521.08c0,-34.56 -28.27,-62.83 -62.83,-62.83zm-432.67 282.69c-13.26,1.37 -23.47,12.52 -23.57,25.89l-0.32 26.62c-0.21,13.37 9.68,24.74 22.94,26.42l19.57 2.53c3.27,11.89 7.9,23.26 13.9,33.99l-12.63 15.58c-8.42,10.41 -7.79,25.36 1.58,34.94l18.63 19.04c9.37,9.58 24.31,10.63 34.94,2.43l15.68 -12.11c11.05,6.53 22.73,11.69 34.94,15.26l2.1 20.21c1.37,13.26 12.53,23.47 25.89,23.58l26.63 0.31c13.36,0.21 24.73,-9.68 26.41,-22.94l2.42 -19.15c13.27,-3.27 25.89,-8.22 37.89,-14.74l14.73 11.89c10.42,8.42 25.37,7.79 34.95,-1.58l19.05 -18.62c9.58,-9.37 10.63,-24.31 2.42,-34.94l-11.27 -14.63c6.95,-11.58 12.32,-23.89 16,-36.84l17.47 -1.79c13.26,-1.37 23.47,-12.52 23.57,-25.89l0.32 -26.62c0.21,-13.37 -9.68,-24.74 -22.94,-26.42l-17.05 -2.21c-3.26,-12.84 -8.11,-25.26 -14.42,-36.83l10.63 -13.05c8.42,-10.42 7.79,-25.37 -1.58,-34.94l-18.62 -19.05c-9.37,-9.58 -24.32,-10.63 -34.95,-2.42l-12.73 9.78c-12,-7.26 -24.84,-12.84 -38.31,-16.62l-1.68 -16.53c-1.37,-13.26 -12.52,-23.47 -25.89,-23.57l-26.63 -0.32c-13.36,-0.21 -24.73,9.68 -26.42,22.94l-2.1 16.42c-13.89,3.58 -27.26,9.06 -39.68,16.21l-13.15 -10.74c-10.42,-8.41 -25.37,-7.78 -34.94,1.58l-19.15 18.74c-9.58,9.36 -10.63,24.31 -2.43,34.94l11.27 14.52c-6.53,11.58 -11.69,23.89 -15.06,36.84l-18.41 1.89zm171.86 -30.1c38.2,0.42 68.83,31.89 68.41,70.1 -0.42,38.19 -31.89,68.82 -70.1,68.4 -38.2,-0.42 -68.82,-31.89 -68.4,-70.09 0.42,-38.2 31.88,-68.83 70.09,-68.41z"/>
 </g>
</svg>
