<?xml version="1.0" encoding="UTF-8"?>
<!DOCTYPE svg PUBLIC "-//W3C//DTD SVG 1.1//EN" "http://www.w3.org/Graphics/SVG/1.1/DTD/svg11.dtd">
<!-- Creator: CorelDRAW -->
<svg xmlns="http://www.w3.org/2000/svg" xml:space="preserve" width="1920px" height="1080px" version="1.1" style="shape-rendering:geometricPrecision; text-rendering:geometricPrecision; image-rendering:optimizeQuality; fill-rule:evenodd; clip-rule:evenodd"
viewBox="0 0 1920 1080"
 xmlns:xlink="http://www.w3.org/1999/xlink"
 xmlns:xodm="http://www.corel.com/coreldraw/odm/2003">
 <defs>
  <style type="text/css">
   <![CDATA[
    .fil0 {fill:#4D4D4D}
   ]]>
  </style>
 </defs>
 <g id="Layer_x0020_1">
  <metadata id="CorelCorpID_0Corel-Layer"/>
  <path class="fil0" d="M1219.58 169.17l-581.35 0c-38.27,0 -69.58,31.3 -69.58,69.57l0 577.01c0,38.26 31.31,69.57 69.58,69.57l581.35 0c38.27,0 69.58,-31.31 69.58,-69.57l0 -577.01c0,-38.27 -31.31,-69.57 -69.58,-69.57zm-180.32 415.24c-15.48,21.27 -40.56,35.12 -68.82,35.12l-39.66 0c-13.69,0 -25.36,-8.7 -29.78,-20.87 -5.45,-1.62 -10.79,-3.74 -16.02,-6.33 -11.04,-5.49 -21.07,-12.93 -29.91,-22.14 -57.28,12.58 -100.16,63.63 -100.16,124.7l0 7.98c0,10.97 8.9,19.87 19.87,19.87l308.26 0c10.97,0 19.86,-8.9 19.86,-19.87l0 -7.98c0,-47.18 -25.59,-88.38 -63.64,-110.48zm-205.3 -55.17c8.54,0 15.97,-4.73 19.82,-11.72 0.1,0.28 0.2,0.55 0.31,0.83 0.03,0.08 0.06,0.17 0.09,0.25 9.03,23.77 26.61,43.7 49.79,52.42 5.6,-8.91 15.52,-14.83 26.81,-14.83l39.66 0c3.95,0 7.64,-1.12 10.86,-2.93 5.42,-3.03 10.29,-10.71 12.81,-14.79 4.03,-6.52 7.15,-13.43 9.92,-20.96 1.55,2.82 3.69,5.28 6.25,7.21l0 9.72c0,21.97 -17.87,39.84 -39.84,39.84l-39.66 0c-7.49,0 -13.57,6.08 -13.57,13.58 0,7.49 6.08,13.57 13.57,13.57l39.66 0c36.94,0 66.99,-30.05 66.99,-66.99l0 -9.72c5.5,-4.13 9.05,-10.7 9.05,-18.11l0 -40.92 0 -15.7c0,-7.55 -3.71,-14.23 -9.39,-18.34 -4.42,-55.82 -51.25,-99.9 -108.18,-99.9 -56.94,0 -103.77,44.08 -108.18,99.9 -5.69,4.11 -9.39,10.79 -9.39,18.34l0 56.62c-0.01,12.54 10.17,22.63 22.62,22.63zm94.95 -170.34c42.14,0 76.91,32.21 80.97,73.31 -2.67,2.1 -4.85,4.78 -6.36,7.86 -12.81,-33.42 -41.39,-56.68 -74.61,-56.68 -33.94,0 -62.07,24.06 -74.57,56.54 -0.02,0.04 -0.04,0.09 -0.05,0.14 -1.51,-3.08 -3.69,-5.76 -6.36,-7.86 4.07,-41.1 38.83,-73.31 80.98,-73.31z"/>
 </g>
</svg>
